<svg xmlns="http://www.w3.org/2000/svg" viewBox="0 0 600 600"><g><g transform="translate(336, 300)"><polygon points="0,20.5 35.5,0 71,20.5 35.5,41" fill="#191718"></polygon><polygon points="35.5,82 71,61.4 71,20.5 35.5,41" fill="#0C0C0C"></polygon><polygon points="0,20.5 0,61.4 35.5,82 35.5,41" fill="#000305"></polygon></g><g transform="translate(265, 300)"><polygon points="0,20.5 35.5,0 71,20.5 35.5,41" fill="#3C4D57"></polygon><polygon points="35.5,82 71,61.4 71,20.5 35.5,41" fill="#32434C"></polygon><polygon points="0,20.5 0,61.4 35.5,82 35.5,41" fill="#313D45"></polygon></g><g transform="translate(229.5, 402.5)"><polygon points="0,20.5 35.5,0 71,20.5 35.5,41" fill="#0062CC"></polygon><polygon points="35.5,82 71,61.4 71,20.5 35.5,41" fill="#005ABE"></polygon><polygon points="0,20.5 0,61.4 35.5,82 35.5,41" fill="#0050B5"></polygon></g></g><g><g transform="translate(265, 423)"><polygon points="0,20.5 35.5,0 71,20.5 35.5,41" fill="#3C4D57"></polygon><polygon points="35.5,82 71,61.4 71,20.5 35.5,41" fill="#32434C"></polygon><polygon points="0,20.5 0,61.4 35.5,82 35.5,41" fill="#313D45"></polygon></g></g><g><g transform="translate(478, 300)"><polygon points="0,20.5 35.5,0 71,20.5 35.5,41" fill="#DADFDF"></polygon><polygon points="35.5,82 71,61.4 71,20.5 35.5,41" fill="#CDD5D6"></polygon><polygon points="0,20.5 0,61.4 35.5,82 35.5,41" fill="#C5CDCF"></polygon></g><g transform="translate(407, 300)"><polygon points="0,20.5 35.5,0 71,20.5 35.5,41" fill="#3C4D57"></polygon><polygon points="35.5,82 71,61.4 71,20.5 35.5,41" fill="#32434C"></polygon><polygon points="0,20.5 0,61.4 35.5,82 35.5,41" fill="#313D45"></polygon></g><g transform="translate(407, 341)"><polygon points="0,20.5 35.5,0 71,20.5 35.5,41" fill="#F5D507"></polygon><polygon points="35.5,82 71,61.4 71,20.5 35.5,41" fill="#F2CB0C"></polygon><polygon points="0,20.5 0,61.4 35.5,82 35.5,41" fill="#EEC000"></polygon></g><g transform="translate(229.5, 320.5)"><polygon points="0,20.5 35.5,0 71,20.5 35.5,41" fill="#3C4D57"></polygon><polygon points="35.5,82 71,61.4 71,20.5 35.5,41" fill="#32434C"></polygon><polygon points="0,20.5 0,61.4 35.5,82 35.5,41" fill="#313D45"></polygon></g></g><g><g transform="translate(371.5, 238.5)"><polygon points="0,20.5 35.5,0 71,20.5 35.5,41" fill="#3C4D57"></polygon><polygon points="35.5,82 71,61.4 71,20.5 35.5,41" fill="#32434C"></polygon><polygon points="0,20.5 0,61.4 35.5,82 35.5,41" fill="#313D45"></polygon></g><g transform="translate(265, 218)"><polygon points="0,20.5 35.5,0 71,20.5 35.5,41" fill="#0062CC"></polygon><polygon points="35.5,82 71,61.4 71,20.5 35.5,41" fill="#005ABE"></polygon><polygon points="0,20.5 0,61.4 35.5,82 35.5,41" fill="#0050B5"></polygon></g><g transform="translate(407, 300)"><polygon points="0,20.5 35.5,0 71,20.5 35.5,41" fill="#DADFDF"></polygon><polygon points="35.5,82 71,61.4 71,20.5 35.5,41" fill="#CDD5D6"></polygon><polygon points="0,20.5 0,61.4 35.5,82 35.5,41" fill="#C5CDCF"></polygon></g><g transform="translate(194, 300)"><polygon points="0,20.5 35.5,0 71,20.5 35.5,41" fill="#3C4D57"></polygon><polygon points="35.5,82 71,61.4 71,20.5 35.5,41" fill="#32434C"></polygon><polygon points="0,20.5 0,61.4 35.5,82 35.5,41" fill="#313D45"></polygon></g></g><g><g transform="translate(371.5, 238.5)"><polygon points="0,20.5 35.5,0 71,20.5 35.5,41" fill="#0062CC"></polygon><polygon points="35.5,82 71,61.4 71,20.5 35.5,41" fill="#005ABE"></polygon><polygon points="0,20.5 0,61.4 35.5,82 35.5,41" fill="#0050B5"></polygon></g><g transform="translate(229.5, 320.5)"><polygon points="0,20.5 35.5,0 71,20.5 35.5,41" fill="#F5D507"></polygon><polygon points="35.5,82 71,61.4 71,20.5 35.5,41" fill="#F2CB0C"></polygon><polygon points="0,20.5 0,61.4 35.5,82 35.5,41" fill="#EEC000"></polygon></g></g><g><g transform="translate(336, 95)"><polygon points="0,20.5 35.5,0 71,20.5 35.5,41" fill="#6D7B86"></polygon><polygon points="35.5,82 71,61.4 71,20.5 35.5,41" fill="#62717A"></polygon><polygon points="0,20.5 0,61.4 35.5,82 35.5,41" fill="#5C6B75"></polygon></g><g transform="translate(371.5, 115.5)"><polygon points="0,20.5 35.5,0 71,20.5 35.5,41" fill="#191718"></polygon><polygon points="35.5,82 71,61.4 71,20.5 35.5,41" fill="#0C0C0C"></polygon><polygon points="0,20.5 0,61.4 35.5,82 35.5,41" fill="#000305"></polygon></g><g transform="translate(300.5, 115.5)"><polygon points="0,20.5 35.5,0 71,20.5 35.5,41" fill="#0062CC"></polygon><polygon points="35.5,82 71,61.4 71,20.5 35.5,41" fill="#005ABE"></polygon><polygon points="0,20.5 0,61.4 35.5,82 35.5,41" fill="#0050B5"></polygon></g></g><g><g transform="translate(87.5, 115.5)"><polygon points="0,20.5 35.5,0 71,20.5 35.5,41" fill="#F5D507"></polygon><polygon points="35.5,82 71,61.4 71,20.5 35.5,41" fill="#F2CB0C"></polygon><polygon points="0,20.5 0,61.4 35.5,82 35.5,41" fill="#EEC000"></polygon></g></g></svg>