<svg xmlns="http://www.w3.org/2000/svg" viewBox="0 0 550 550"><path fill="#BFD7ED" d="M222 244.5l35.5-20.5 35.5 20.5-35.5 20.5z"/><path fill="#B2CFEA" d="M257.5 306l35.5-20.6v-40.9L257.5 265z"/><path fill="#A6C7E6" d="M222 244.5v40.9l35.5 20.6v-41z"/><path fill="#FBFAFA" d="M328.5 388l35.5-20.5 35.5 20.5-35.5 20.5z"/><path fill="#F5F5F4" d="M364 449.5l35.5-20.6V388L364 408.5z"/><path fill="#EFF2F1" d="M328.5 388v40.9l35.5 20.6v-41z"/><path fill="#3C4D57" d="M151 326.5l35.5-20.5 35.5 20.5-35.5 20.5z"/><path fill="#32434C" d="M186.5 388l35.5-20.6v-40.9L186.5 347z"/><path fill="#313D45" d="M151 326.5v40.9l35.5 20.6v-41z"/><path fill="#FBFAFA" d="M80 326.5l35.5-20.5 35.5 20.5-35.5 20.5z"/><path fill="#F5F5F4" d="M115.5 388l35.5-20.6v-40.9L115.5 347z"/><path fill="#EFF2F1" d="M80 326.5v40.9l35.5 20.6v-41z"/><path fill="#FBFAFA" d="M186.5 224l35.5-20.5 35.5 20.5-35.5 20.5z"/><path fill="#F5F5F4" d="M222 285.5l35.5-20.6V224L222 244.5z"/><path fill="#EFF2F1" d="M186.5 224v40.9l35.5 20.6v-41z"/><path fill="#00267A" d="M186.5 306l35.5-20.5 35.5 20.5-35.5 20.5z"/><path fill="#001F75" d="M222 367.5l35.5-20.6V306L222 326.5z"/><path fill="#001766" d="M186.5 306v40.9l35.5 20.6v-41z"/><path fill="#00267A" d="M222 326.5l35.5-20.5 35.5 20.5-35.5 20.5z"/><path fill="#001F75" d="M257.5 388l35.5-20.6v-40.9L257.5 347z"/><path fill="#001766" d="M222 326.5v40.9l35.5 20.6v-41z"/><path fill="#00267A" d="M9 326.5L44.5 306 80 326.5 44.5 347z"/><path fill="#001F75" d="M44.5 388L80 367.4v-40.9L44.5 347z"/><path fill="#001766" d="M9 326.5v40.9L44.5 388v-41z"/><path fill="#F5D507" d="M257.5 470l35.5-20.5 35.5 20.5-35.5 20.5z"/><path fill="#F2CB0C" d="M293 531.5l35.5-20.6V470L293 490.5z"/><path fill="#EEC000" d="M257.5 470v40.9l35.5 20.6v-41z"/><path fill="#6D7B86" d="M186.5 224l35.5-20.5 35.5 20.5-35.5 20.5z"/><path fill="#62717A" d="M222 285.5l35.5-20.6V224L222 244.5z"/><path fill="#5C6B75" d="M186.5 224v40.9l35.5 20.6v-41z"/><path fill="#BFD7ED" d="M399.5 347l35.5-20.5 35.5 20.5-35.5 20.5z"/><path fill="#B2CFEA" d="M435 408.5l35.5-20.6V347L435 367.5z"/><path fill="#A6C7E6" d="M399.5 347v40.9l35.5 20.6v-41z"/><path fill="#FBFAFA" d="M222 326.5l35.5-20.5 35.5 20.5-35.5 20.5z"/><path fill="#F5F5F4" d="M257.5 388l35.5-20.6v-40.9L257.5 347z"/><path fill="#EFF2F1" d="M222 326.5v40.9l35.5 20.6v-41z"/><path fill="#F5D507" d="M328.5 183l35.5-20.5 35.5 20.5-35.5 20.5z"/><path fill="#F2CB0C" d="M364 244.5l35.5-20.6V183L364 203.5z"/><path fill="#EEC000" d="M328.5 183v40.9l35.5 20.6v-41z"/><path fill="#00267A" d="M399.5 265l35.5-20.5 35.5 20.5-35.5 20.5z"/><path fill="#001F75" d="M435 326.5l35.5-20.6V265L435 285.5z"/><path fill="#001766" d="M399.5 265v40.9l35.5 20.6v-41z"/><path fill="#6D7B86" d="M115.5 183l35.5-20.5 35.5 20.5-35.5 20.5z"/><path fill="#62717A" d="M151 244.5l35.5-20.6V183L151 203.5z"/><path fill="#5C6B75" d="M115.5 183v40.9l35.5 20.6v-41z"/><path fill="#0062CC" d="M186.5 265l35.5-20.5 35.5 20.5-35.5 20.5z"/><path fill="#005ABE" d="M222 326.5l35.5-20.6V265L222 285.5z"/><path fill="#0050B5" d="M186.5 265v40.9l35.5 20.6v-41z"/><path fill="#0062CC" d="M328.5 347l35.5-20.5 35.5 20.5-35.5 20.5z"/><path fill="#005ABE" d="M364 408.5l35.5-20.6V347L364 367.5z"/><path fill="#0050B5" d="M328.5 347v40.9l35.5 20.6v-41z"/><path fill="#3C4D57" d="M257.5 347l35.5-20.5 35.5 20.5-35.5 20.5z"/><path fill="#32434C" d="M293 408.5l35.5-20.6V347L293 367.5z"/><path fill="#313D45" d="M257.5 347v40.9l35.5 20.6v-41z"/><path fill="#DADFDF" d="M328.5 265l35.5-20.5 35.5 20.5-35.5 20.5z"/><path fill="#CDD5D6" d="M364 326.5l35.5-20.6V265L364 285.5z"/><path fill="#C5CDCF" d="M328.5 265v40.9l35.5 20.6v-41z"/><path fill="#0062CC" d="M257.5 306l35.5-20.5 35.5 20.5-35.5 20.5z"/><path fill="#005ABE" d="M293 367.5l35.5-20.6V306L293 326.5z"/><path fill="#0050B5" d="M257.5 306v40.9l35.5 20.6v-41z"/><path fill="#6D7B86" d="M44.5 224L80 203.5l35.5 20.5L80 244.5z"/><path fill="#62717A" d="M80 285.5l35.5-20.6V224L80 244.5z"/><path fill="#5C6B75" d="M44.5 224v40.9L80 285.5v-41z"/><path fill="#BFD7ED" d="M151 285.5l35.5-20.5 35.5 20.5-35.5 20.5z"/><path fill="#B2CFEA" d="M186.5 347l35.5-20.6v-40.9L186.5 306z"/><path fill="#A6C7E6" d="M151 285.5v40.9l35.5 20.6v-41z"/><path fill="#0062CC" d="M435 162.5l35.5-20.5 35.5 20.5-35.5 20.5z"/><path fill="#005ABE" d="M470.5 224l35.5-20.6v-40.9L470.5 183z"/><path fill="#0050B5" d="M435 162.5v40.9l35.5 20.6v-41z"/><path fill="#BFD7ED" d="M328.5 60L364 39.5 399.5 60 364 80.5z"/><path fill="#B2CFEA" d="M364 121.5l35.5-20.6V60L364 80.5z"/><path fill="#A6C7E6" d="M328.5 60v40.9l35.5 20.6v-41z"/><path fill="#00267A" d="M222 39.5L257.5 19 293 39.5 257.5 60z"/><path fill="#001F75" d="M257.5 101L293 80.4V39.5L257.5 60z"/><path fill="#001766" d="M222 39.5v40.9l35.5 20.6V60z"/><path fill="#DADFDF" d="M257.5 101L293 80.5l35.5 20.5-35.5 20.5z"/><path fill="#CDD5D6" d="M293 162.5l35.5-20.6V101L293 121.5z"/><path fill="#C5CDCF" d="M257.5 101v40.9l35.5 20.6v-41z"/></svg>