<svg xmlns="http://www.w3.org/2000/svg" viewBox="0 0 600 600"><path fill="#191718" d="M336 320.5l35.5-20.5 35.5 20.5-35.5 20.5z"/><path fill="#0C0C0C" d="M371.5 382l35.5-20.6v-40.9L371.5 341z"/><path fill="#000305" d="M336 320.5v40.9l35.5 20.6v-41z"/><path fill="#3C4D57" d="M265 320.5l35.5-20.5 35.5 20.5-35.5 20.5z"/><path fill="#32434C" d="M300.5 382l35.5-20.6v-40.9L300.5 341z"/><path fill="#313D45" d="M265 320.5v40.9l35.5 20.6v-41z"/><path fill="#0062CC" d="M229.5 423l35.5-20.5 35.5 20.5-35.5 20.5z"/><path fill="#005ABE" d="M265 484.5l35.5-20.6V423L265 443.5z"/><path fill="#0050B5" d="M229.5 423v40.9l35.5 20.6v-41z"/><path fill="#3C4D57" d="M265 443.5l35.5-20.5 35.5 20.5-35.5 20.5z"/><path fill="#32434C" d="M300.5 505l35.5-20.6v-40.9L300.5 464z"/><path fill="#313D45" d="M265 443.5v40.9l35.5 20.6v-41z"/><path fill="#DADFDF" d="M478 320.5l35.5-20.5 35.5 20.5-35.5 20.5z"/><path fill="#CDD5D6" d="M513.5 382l35.5-20.6v-40.9L513.5 341z"/><path fill="#C5CDCF" d="M478 320.5v40.9l35.5 20.6v-41z"/><path fill="#3C4D57" d="M407 320.5l35.5-20.5 35.5 20.5-35.5 20.5z"/><path fill="#32434C" d="M442.5 382l35.5-20.6v-40.9L442.5 341z"/><path fill="#313D45" d="M407 320.5v40.9l35.5 20.6v-41z"/><path fill="#F5D507" d="M407 361.5l35.5-20.5 35.5 20.5-35.5 20.5z"/><path fill="#F2CB0C" d="M442.5 423l35.5-20.6v-40.9L442.5 382z"/><path fill="#EEC000" d="M407 361.5v40.9l35.5 20.6v-41z"/><path fill="#3C4D57" d="M229.5 341l35.5-20.5 35.5 20.5-35.5 20.5z"/><path fill="#32434C" d="M265 402.5l35.5-20.6V341L265 361.5z"/><path fill="#313D45" d="M229.5 341v40.9l35.5 20.6v-41z"/><path fill="#3C4D57" d="M371.5 259l35.5-20.5 35.5 20.5-35.5 20.5z"/><path fill="#32434C" d="M407 320.5l35.5-20.6V259L407 279.5z"/><path fill="#313D45" d="M371.5 259v40.9l35.5 20.6v-41z"/><path fill="#0062CC" d="M265 238.5l35.5-20.5 35.5 20.5-35.5 20.5z"/><path fill="#005ABE" d="M300.5 300l35.5-20.6v-40.9L300.5 259z"/><path fill="#0050B5" d="M265 238.5v40.9l35.5 20.6v-41z"/><path fill="#DADFDF" d="M407 320.5l35.5-20.5 35.5 20.5-35.5 20.5z"/><path fill="#CDD5D6" d="M442.5 382l35.5-20.6v-40.9L442.5 341z"/><path fill="#C5CDCF" d="M407 320.5v40.9l35.5 20.6v-41z"/><path fill="#3C4D57" d="M194 320.5l35.5-20.5 35.5 20.5-35.5 20.5z"/><path fill="#32434C" d="M229.5 382l35.5-20.6v-40.9L229.5 341z"/><path fill="#313D45" d="M194 320.5v40.9l35.5 20.6v-41z"/><path fill="#0062CC" d="M371.5 259l35.5-20.5 35.5 20.5-35.5 20.5z"/><path fill="#005ABE" d="M407 320.5l35.5-20.6V259L407 279.5z"/><path fill="#0050B5" d="M371.5 259v40.9l35.5 20.6v-41z"/><path fill="#F5D507" d="M229.5 341l35.5-20.5 35.5 20.5-35.5 20.5z"/><path fill="#F2CB0C" d="M265 402.5l35.5-20.6V341L265 361.5z"/><path fill="#EEC000" d="M229.5 341v40.9l35.5 20.6v-41z"/><path fill="#6D7B86" d="M336 115.5L371.5 95l35.5 20.5-35.5 20.5z"/><path fill="#62717A" d="M371.5 177l35.5-20.6v-40.9L371.5 136z"/><path fill="#5C6B75" d="M336 115.5v40.9l35.5 20.6v-41z"/><path fill="#191718" d="M371.5 136l35.5-20.5 35.5 20.5-35.5 20.5z"/><path fill="#0C0C0C" d="M407 197.5l35.5-20.6V136L407 156.5z"/><path fill="#000305" d="M371.5 136v40.9l35.5 20.6v-41z"/><path fill="#0062CC" d="M300.5 136l35.5-20.5 35.5 20.5-35.5 20.5z"/><path fill="#005ABE" d="M336 197.5l35.5-20.6V136L336 156.5z"/><path fill="#0050B5" d="M300.5 136v40.9l35.5 20.6v-41z"/><path fill="#F5D507" d="M87.5 136l35.5-20.5 35.5 20.5-35.5 20.5z"/><path fill="#F2CB0C" d="M123 197.5l35.5-20.6V136L123 156.5z"/><path fill="#EEC000" d="M87.5 136v40.9l35.5 20.6v-41z"/></svg>