<svg xmlns="http://www.w3.org/2000/svg" viewBox="0 0 600 600"><path fill="#DADFDF" d="M229.5 300l35.5-20.5 35.5 20.5-35.5 20.5z"/><path fill="#CDD5D6" d="M265 361.5l35.5-20.6V300L265 320.5z"/><path fill="#C5CDCF" d="M229.5 300v40.9l35.5 20.6v-41z"/><path fill="#0062CC" d="M300.5 382l35.5-20.5 35.5 20.5-35.5 20.5z"/><path fill="#005ABE" d="M336 443.5l35.5-20.6V382L336 402.5z"/><path fill="#0050B5" d="M300.5 382v40.9l35.5 20.6v-41z"/><path fill="#0062CC" d="M407 443.5l35.5-20.5 35.5 20.5-35.5 20.5z"/><path fill="#005ABE" d="M442.5 505l35.5-20.6v-40.9L442.5 464z"/><path fill="#0050B5" d="M407 443.5v40.9l35.5 20.6v-41z"/><path fill="#BFD7ED" d="M123 402.5l35.5-20.5 35.5 20.5-35.5 20.5z"/><path fill="#B2CFEA" d="M158.5 464l35.5-20.6v-40.9L158.5 423z"/><path fill="#A6C7E6" d="M123 402.5v40.9l35.5 20.6v-41z"/><path fill="#BFD7ED" d="M194 443.5l35.5-20.5 35.5 20.5-35.5 20.5z"/><path fill="#B2CFEA" d="M229.5 505l35.5-20.6v-40.9L229.5 464z"/><path fill="#A6C7E6" d="M194 443.5v40.9l35.5 20.6v-41z"/><path fill="#3C4D57" d="M87.5 423l35.5-20.5 35.5 20.5-35.5 20.5z"/><path fill="#32434C" d="M123 484.5l35.5-20.6V423L123 443.5z"/><path fill="#313D45" d="M87.5 423v40.9l35.5 20.6v-41z"/><path fill="#3C4D57" d="M194 484.5l35.5-20.5 35.5 20.5-35.5 20.5z"/><path fill="#32434C" d="M229.5 546l35.5-20.6v-40.9L229.5 505z"/><path fill="#313D45" d="M194 484.5v40.9l35.5 20.6v-41z"/><path fill="#6D7B86" d="M300.5 300l35.5-20.5 35.5 20.5-35.5 20.5z"/><path fill="#62717A" d="M336 361.5l35.5-20.6V300L336 320.5z"/><path fill="#5C6B75" d="M300.5 300v40.9l35.5 20.6v-41z"/><path fill="#6D7B86" d="M371.5 341l35.5-20.5 35.5 20.5-35.5 20.5z"/><path fill="#62717A" d="M407 402.5l35.5-20.6V341L407 361.5z"/><path fill="#5C6B75" d="M371.5 341v40.9l35.5 20.6v-41z"/><path fill="#DADFDF" d="M194 279.5l35.5-20.5 35.5 20.5-35.5 20.5z"/><path fill="#CDD5D6" d="M229.5 341l35.5-20.6v-40.9L229.5 300z"/><path fill="#C5CDCF" d="M194 279.5v40.9l35.5 20.6v-41z"/><path fill="#DADFDF" d="M229.5 300l35.5-20.5 35.5 20.5-35.5 20.5z"/><path fill="#CDD5D6" d="M265 361.5l35.5-20.6V300L265 320.5z"/><path fill="#C5CDCF" d="M229.5 300v40.9l35.5 20.6v-41z"/><path fill="#BFD7ED" d="M407 279.5l35.5-20.5 35.5 20.5-35.5 20.5z"/><path fill="#B2CFEA" d="M442.5 341l35.5-20.6v-40.9L442.5 300z"/><path fill="#A6C7E6" d="M407 279.5v40.9l35.5 20.6v-41z"/><path fill="#191718" d="M442.5 300l35.5-20.5 35.5 20.5-35.5 20.5z"/><path fill="#0C0C0C" d="M478 361.5l35.5-20.6V300L478 320.5z"/><path fill="#000305" d="M442.5 300v40.9l35.5 20.6v-41z"/><path fill="#0062CC" d="M336 197.5l35.5-20.5 35.5 20.5-35.5 20.5z"/><path fill="#005ABE" d="M371.5 259l35.5-20.6v-40.9L371.5 218z"/><path fill="#0050B5" d="M336 197.5v40.9l35.5 20.6v-41z"/><path fill="#6D7B86" d="M123 279.5l35.5-20.5 35.5 20.5-35.5 20.5z"/><path fill="#62717A" d="M158.5 341l35.5-20.6v-40.9L158.5 300z"/><path fill="#5C6B75" d="M123 279.5v40.9l35.5 20.6v-41z"/><path fill="#191718" d="M300.5 382l35.5-20.5 35.5 20.5-35.5 20.5z"/><path fill="#0C0C0C" d="M336 443.5l35.5-20.6V382L336 402.5z"/><path fill="#000305" d="M300.5 382v40.9l35.5 20.6v-41z"/><path fill="#00267A" d="M300.5 218l35.5-20.5 35.5 20.5-35.5 20.5z"/><path fill="#001F75" d="M336 279.5l35.5-20.6V218L336 238.5z"/><path fill="#001766" d="M300.5 218v40.9l35.5 20.6v-41z"/><path fill="#BFD7ED" d="M229.5 300l35.5-20.5 35.5 20.5-35.5 20.5z"/><path fill="#B2CFEA" d="M265 361.5l35.5-20.6V300L265 320.5z"/><path fill="#A6C7E6" d="M229.5 300v40.9l35.5 20.6v-41z"/><path fill="#00267A" d="M265 156.5l35.5-20.5 35.5 20.5-35.5 20.5z"/><path fill="#001F75" d="M300.5 218l35.5-20.6v-40.9L300.5 177z"/><path fill="#001766" d="M265 156.5v40.9l35.5 20.6v-41z"/><path fill="#191718" d="M158.5 136l35.5-20.5 35.5 20.5-35.5 20.5z"/><path fill="#0C0C0C" d="M194 197.5l35.5-20.6V136L194 156.5z"/><path fill="#000305" d="M158.5 136v40.9l35.5 20.6v-41z"/><path fill="#3C4D57" d="M194 156.5l35.5-20.5 35.5 20.5-35.5 20.5z"/><path fill="#32434C" d="M229.5 218l35.5-20.6v-40.9L229.5 177z"/><path fill="#313D45" d="M194 156.5v40.9l35.5 20.6v-41z"/><path fill="#DADFDF" d="M371.5 259l35.5-20.5 35.5 20.5-35.5 20.5z"/><path fill="#CDD5D6" d="M407 320.5l35.5-20.6V259L407 279.5z"/><path fill="#C5CDCF" d="M371.5 259v40.9l35.5 20.6v-41z"/><path fill="#00267A" d="M194 279.5l35.5-20.5 35.5 20.5-35.5 20.5z"/><path fill="#001F75" d="M229.5 341l35.5-20.6v-40.9L229.5 300z"/><path fill="#001766" d="M194 279.5v40.9l35.5 20.6v-41z"/><path fill="#F5D507" d="M87.5 177l35.5-20.5 35.5 20.5-35.5 20.5z"/><path fill="#F2CB0C" d="M123 238.5l35.5-20.6V177L123 197.5z"/><path fill="#EEC000" d="M87.5 177v40.9l35.5 20.6v-41z"/><path fill="#6D7B86" d="M194 238.5l35.5-20.5 35.5 20.5-35.5 20.5z"/><path fill="#62717A" d="M229.5 300l35.5-20.6v-40.9L229.5 259z"/><path fill="#5C6B75" d="M194 238.5v40.9l35.5 20.6v-41z"/></svg>