<svg xmlns="http://www.w3.org/2000/svg" viewBox="0 0 600 600"><path fill="#BFD7ED" d="M371.5 341l35.5-20.5 35.5 20.5-35.5 20.5z"/><path fill="#B2CFEA" d="M407 402.5l35.5-20.6V341L407 361.5z"/><path fill="#A6C7E6" d="M371.5 341v40.9l35.5 20.6v-41z"/><path fill="#3C4D57" d="M265 443.5l35.5-20.5 35.5 20.5-35.5 20.5z"/><path fill="#32434C" d="M300.5 505l35.5-20.6v-40.9L300.5 464z"/><path fill="#313D45" d="M265 443.5v40.9l35.5 20.6v-41z"/><path fill="#191718" d="M442.5 341l35.5-20.5 35.5 20.5-35.5 20.5z"/><path fill="#0C0C0C" d="M478 402.5l35.5-20.6V341L478 361.5z"/><path fill="#000305" d="M442.5 341v40.9l35.5 20.6v-41z"/><path fill="#3C4D57" d="M336 320.5l35.5-20.5 35.5 20.5-35.5 20.5z"/><path fill="#32434C" d="M371.5 382l35.5-20.6v-40.9L371.5 341z"/><path fill="#313D45" d="M336 320.5v40.9l35.5 20.6v-41z"/><path fill="#00267A" d="M371.5 423l35.5-20.5 35.5 20.5-35.5 20.5z"/><path fill="#001F75" d="M407 484.5l35.5-20.6V423L407 443.5z"/><path fill="#001766" d="M371.5 423v40.9l35.5 20.6v-41z"/><path fill="#6D7B86" d="M265 402.5l35.5-20.5 35.5 20.5-35.5 20.5z"/><path fill="#62717A" d="M300.5 464l35.5-20.6v-40.9L300.5 423z"/><path fill="#5C6B75" d="M265 402.5v40.9l35.5 20.6v-41z"/><path fill="#DADFDF" d="M194 402.5l35.5-20.5 35.5 20.5-35.5 20.5z"/><path fill="#CDD5D6" d="M229.5 464l35.5-20.6v-40.9L229.5 423z"/><path fill="#C5CDCF" d="M194 402.5v40.9l35.5 20.6v-41z"/><path fill="#00267A" d="M194 156.5l35.5-20.5 35.5 20.5-35.5 20.5z"/><path fill="#001F75" d="M229.5 218l35.5-20.6v-40.9L229.5 177z"/><path fill="#001766" d="M194 156.5v40.9l35.5 20.6v-41z"/><path fill="#F5D507" d="M265 279.5l35.5-20.5 35.5 20.5-35.5 20.5z"/><path fill="#F2CB0C" d="M300.5 341l35.5-20.6v-40.9L300.5 300z"/><path fill="#EEC000" d="M265 279.5v40.9l35.5 20.6v-41z"/><path fill="#0062CC" d="M158.5 300l35.5-20.5 35.5 20.5-35.5 20.5z"/><path fill="#005ABE" d="M194 361.5l35.5-20.6V300L194 320.5z"/><path fill="#0050B5" d="M158.5 300v40.9l35.5 20.6v-41z"/><path fill="#F5D507" d="M265 74.5L300.5 54 336 74.5 300.5 95z"/><path fill="#F2CB0C" d="M300.5 136l35.5-20.6V74.5L300.5 95z"/><path fill="#EEC000" d="M265 74.5v40.9l35.5 20.6V95z"/><path fill="#3C4D57" d="M229.5 177l35.5-20.5 35.5 20.5-35.5 20.5z"/><path fill="#32434C" d="M265 238.5l35.5-20.6V177L265 197.5z"/><path fill="#313D45" d="M229.5 177v40.9l35.5 20.6v-41z"/><path fill="#FBFAFA" d="M371.5 218l35.5-20.5 35.5 20.5-35.5 20.5z"/><path fill="#F5F5F4" d="M407 279.5l35.5-20.6V218L407 238.5z"/><path fill="#EFF2F1" d="M371.5 218v40.9l35.5 20.6v-41z"/></svg>